<svg width="270" height="302" viewBox="0 0 270 302" fill="none" xmlns="http://www.w3.org/2000/svg">
<rect width="270" height="302" fill="#C4C4C4"/>
<path d="M100.282 105.2C101.802 105.2 103.122 105.456 104.242 105.968C105.362 106.464 106.226 107.184 106.834 108.128C107.442 109.056 107.746 110.152 107.746 111.416C107.746 112.68 107.442 113.776 106.834 114.704C106.226 115.632 105.362 116.352 104.242 116.864C103.122 117.36 101.802 117.608 100.282 117.608H97.3539V122H92.6019V105.2H100.282ZM99.9939 113.864C100.97 113.864 101.706 113.656 102.202 113.24C102.698 112.808 102.946 112.2 102.946 111.416C102.946 110.632 102.698 110.024 102.202 109.592C101.706 109.16 100.97 108.944 99.9939 108.944H97.3539V113.864H99.9939ZM126.047 105.2V122H121.295V115.448H114.815V122H110.063V105.2H114.815V111.512H121.295V105.2H126.047ZM137.871 122.336C136.095 122.336 134.495 121.96 133.071 121.208C131.663 120.456 130.551 119.416 129.735 118.088C128.935 116.76 128.535 115.264 128.535 113.6C128.535 111.936 128.935 110.44 129.735 109.112C130.551 107.784 131.663 106.744 133.071 105.992C134.495 105.24 136.095 104.864 137.871 104.864C139.647 104.864 141.239 105.24 142.647 105.992C144.071 106.744 145.183 107.784 145.983 109.112C146.799 110.44 147.207 111.936 147.207 113.6C147.207 115.264 146.799 116.76 145.983 118.088C145.183 119.416 144.071 120.456 142.647 121.208C141.239 121.96 139.647 122.336 137.871 122.336ZM137.871 118.4C138.719 118.4 139.487 118.2 140.175 117.8C140.863 117.4 141.407 116.84 141.807 116.12C142.207 115.384 142.407 114.544 142.407 113.6C142.407 112.656 142.207 111.824 141.807 111.104C141.407 110.368 140.863 109.8 140.175 109.4C139.487 109 138.719 108.8 137.871 108.8C137.023 108.8 136.255 109 135.567 109.4C134.879 109.8 134.335 110.368 133.935 111.104C133.535 111.824 133.335 112.656 133.335 113.6C133.335 114.544 133.535 115.384 133.935 116.12C134.335 116.84 134.879 117.4 135.567 117.8C136.255 118.2 137.023 118.4 137.871 118.4ZM153.037 108.968H147.877V105.2H162.925V108.968H157.789V122H153.037V108.968ZM172.933 122.336C171.157 122.336 169.557 121.96 168.133 121.208C166.725 120.456 165.613 119.416 164.797 118.088C163.997 116.76 163.597 115.264 163.597 113.6C163.597 111.936 163.997 110.44 164.797 109.112C165.613 107.784 166.725 106.744 168.133 105.992C169.557 105.24 171.157 104.864 172.933 104.864C174.709 104.864 176.301 105.24 177.709 105.992C179.133 106.744 180.245 107.784 181.045 109.112C181.861 110.44 182.269 111.936 182.269 113.6C182.269 115.264 181.861 116.76 181.045 118.088C180.245 119.416 179.133 120.456 177.709 121.208C176.301 121.96 174.709 122.336 172.933 122.336ZM172.933 118.4C173.781 118.4 174.549 118.2 175.237 117.8C175.925 117.4 176.469 116.84 176.869 116.12C177.269 115.384 177.469 114.544 177.469 113.6C177.469 112.656 177.269 111.824 176.869 111.104C176.469 110.368 175.925 109.8 175.237 109.4C174.549 109 173.781 108.8 172.933 108.8C172.085 108.8 171.317 109 170.629 109.4C169.941 109.8 169.397 110.368 168.997 111.104C168.597 111.824 168.397 112.656 168.397 113.6C168.397 114.544 168.597 115.384 168.997 116.12C169.397 116.84 169.941 117.4 170.629 117.8C171.317 118.2 172.085 118.4 172.933 118.4ZM93.806 151.336C92.046 151.336 90.462 150.968 89.054 150.232C87.662 149.48 86.566 148.44 85.766 147.112C84.966 145.784 84.566 144.28 84.566 142.6C84.566 140.92 84.966 139.416 85.766 138.088C86.566 136.76 87.662 135.728 89.054 134.992C90.462 134.24 92.046 133.864 93.806 133.864C95.342 133.864 96.726 134.136 97.958 134.68C99.19 135.224 100.214 136.008 101.03 137.032L98.006 139.768C96.918 138.456 95.598 137.8 94.046 137.8C93.134 137.8 92.318 138 91.598 138.4C90.894 138.8 90.342 139.368 89.942 140.104C89.558 140.824 89.366 141.656 89.366 142.6C89.366 143.544 89.558 144.384 89.942 145.12C90.342 145.84 90.894 146.4 91.598 146.8C92.318 147.2 93.134 147.4 94.046 147.4C95.598 147.4 96.918 146.744 98.006 145.432L101.03 148.168C100.214 149.192 99.19 149.976 97.958 150.52C96.726 151.064 95.342 151.336 93.806 151.336ZM111.269 151.336C109.493 151.336 107.893 150.96 106.469 150.208C105.061 149.456 103.949 148.416 103.133 147.088C102.333 145.76 101.933 144.264 101.933 142.6C101.933 140.936 102.333 139.44 103.133 138.112C103.949 136.784 105.061 135.744 106.469 134.992C107.893 134.24 109.493 133.864 111.269 133.864C113.045 133.864 114.637 134.24 116.045 134.992C117.469 135.744 118.581 136.784 119.381 138.112C120.197 139.44 120.605 140.936 120.605 142.6C120.605 144.264 120.197 145.76 119.381 147.088C118.581 148.416 117.469 149.456 116.045 150.208C114.637 150.96 113.045 151.336 111.269 151.336ZM111.269 147.4C112.117 147.4 112.885 147.2 113.573 146.8C114.261 146.4 114.805 145.84 115.205 145.12C115.605 144.384 115.805 143.544 115.805 142.6C115.805 141.656 115.605 140.824 115.205 140.104C114.805 139.368 114.261 138.8 113.573 138.4C112.885 138 112.117 137.8 111.269 137.8C110.421 137.8 109.653 138 108.965 138.4C108.277 138.8 107.733 139.368 107.333 140.104C106.933 140.824 106.733 141.656 106.733 142.6C106.733 143.544 106.933 144.384 107.333 145.12C107.733 145.84 108.277 146.4 108.965 146.8C109.653 147.2 110.421 147.4 111.269 147.4ZM138.262 151L138.214 142.096L133.894 149.344H131.782L127.486 142.336V151H123.094V134.2H127.006L132.91 143.896L138.67 134.2H142.582L142.63 151H138.262ZM145.993 134.2H150.745V151H145.993V134.2ZM170.109 134.2V151H166.197L158.781 142.048V151H154.125V134.2H158.037L165.453 143.152V134.2H170.109ZM184.717 142.24H188.917V149.2C187.957 149.888 186.853 150.416 185.605 150.784C184.357 151.152 183.109 151.336 181.861 151.336C180.101 151.336 178.517 150.968 177.109 150.232C175.701 149.48 174.597 148.44 173.797 147.112C172.997 145.784 172.597 144.28 172.597 142.6C172.597 140.92 172.997 139.416 173.797 138.088C174.597 136.76 175.709 135.728 177.133 134.992C178.557 134.24 180.165 133.864 181.957 133.864C183.525 133.864 184.933 134.128 186.181 134.656C187.429 135.184 188.469 135.944 189.301 136.936L186.277 139.672C185.141 138.424 183.781 137.8 182.197 137.8C180.757 137.8 179.597 138.24 178.717 139.12C177.837 139.984 177.397 141.144 177.397 142.6C177.397 143.528 177.597 144.36 177.997 145.096C178.397 145.816 178.957 146.384 179.677 146.8C180.397 147.2 181.221 147.4 182.149 147.4C183.061 147.4 183.917 147.216 184.717 146.848V142.24ZM103.451 180.336C102.091 180.336 100.771 180.168 99.4912 179.832C98.2112 179.496 97.1712 179.048 96.3712 178.488L97.9312 174.984C98.6832 175.48 99.5552 175.88 100.547 176.184C101.539 176.488 102.515 176.64 103.475 176.64C105.299 176.64 106.211 176.184 106.211 175.272C106.211 174.792 105.947 174.44 105.419 174.216C104.907 173.976 104.075 173.728 102.923 173.472C101.659 173.2 100.603 172.912 99.7552 172.608C98.9072 172.288 98.1792 171.784 97.5712 171.096C96.9632 170.408 96.6592 169.48 96.6592 168.312C96.6592 167.288 96.9392 166.368 97.4992 165.552C98.0592 164.72 98.8912 164.064 99.9952 163.584C101.115 163.104 102.483 162.864 104.099 162.864C105.203 162.864 106.291 162.992 107.363 163.248C108.435 163.488 109.379 163.848 110.195 164.328L108.731 167.856C107.131 166.992 105.579 166.56 104.075 166.56C103.131 166.56 102.443 166.704 102.011 166.992C101.579 167.264 101.363 167.624 101.363 168.072C101.363 168.52 101.619 168.856 102.131 169.08C102.643 169.304 103.467 169.536 104.603 169.776C105.883 170.048 106.939 170.344 107.771 170.664C108.619 170.968 109.347 171.464 109.955 172.152C110.579 172.824 110.891 173.744 110.891 174.912C110.891 175.92 110.611 176.832 110.051 177.648C109.491 178.464 108.651 179.12 107.531 179.616C106.411 180.096 105.051 180.336 103.451 180.336ZM121.558 180.336C119.782 180.336 118.182 179.96 116.758 179.208C115.35 178.456 114.238 177.416 113.422 176.088C112.622 174.76 112.222 173.264 112.222 171.6C112.222 169.936 112.622 168.44 113.422 167.112C114.238 165.784 115.35 164.744 116.758 163.992C118.182 163.24 119.782 162.864 121.558 162.864C123.334 162.864 124.926 163.24 126.334 163.992C127.758 164.744 128.87 165.784 129.67 167.112C130.486 168.44 130.894 169.936 130.894 171.6C130.894 173.264 130.486 174.76 129.67 176.088C128.87 177.416 127.758 178.456 126.334 179.208C124.926 179.96 123.334 180.336 121.558 180.336ZM121.558 176.4C122.406 176.4 123.174 176.2 123.862 175.8C124.55 175.4 125.094 174.84 125.494 174.12C125.894 173.384 126.094 172.544 126.094 171.6C126.094 170.656 125.894 169.824 125.494 169.104C125.094 168.368 124.55 167.8 123.862 167.4C123.174 167 122.406 166.8 121.558 166.8C120.71 166.8 119.942 167 119.254 167.4C118.566 167.8 118.022 168.368 117.622 169.104C117.222 169.824 117.022 170.656 117.022 171.6C117.022 172.544 117.222 173.384 117.622 174.12C118.022 174.84 118.566 175.4 119.254 175.8C119.942 176.2 120.71 176.4 121.558 176.4ZM141.855 180.336C140.079 180.336 138.479 179.96 137.055 179.208C135.647 178.456 134.535 177.416 133.719 176.088C132.919 174.76 132.519 173.264 132.519 171.6C132.519 169.936 132.919 168.44 133.719 167.112C134.535 165.784 135.647 164.744 137.055 163.992C138.479 163.24 140.079 162.864 141.855 162.864C143.631 162.864 145.223 163.24 146.631 163.992C148.055 164.744 149.167 165.784 149.967 167.112C150.783 168.44 151.191 169.936 151.191 171.6C151.191 173.264 150.783 174.76 149.967 176.088C149.167 177.416 148.055 178.456 146.631 179.208C145.223 179.96 143.631 180.336 141.855 180.336ZM141.855 176.4C142.703 176.4 143.471 176.2 144.159 175.8C144.847 175.4 145.391 174.84 145.791 174.12C146.191 173.384 146.391 172.544 146.391 171.6C146.391 170.656 146.191 169.824 145.791 169.104C145.391 168.368 144.847 167.8 144.159 167.4C143.471 167 142.703 166.8 141.855 166.8C141.007 166.8 140.239 167 139.551 167.4C138.863 167.8 138.319 168.368 137.919 169.104C137.519 169.824 137.319 170.656 137.319 171.6C137.319 172.544 137.519 173.384 137.919 174.12C138.319 174.84 138.863 175.4 139.551 175.8C140.239 176.2 141.007 176.4 141.855 176.4ZM169.664 163.2V180H165.752L158.336 171.048V180H153.68V163.2H157.592L165.008 172.152V163.2H169.664ZM174.72 180.216C173.952 180.216 173.304 179.96 172.776 179.448C172.248 178.936 171.984 178.288 171.984 177.504C171.984 176.704 172.24 176.056 172.752 175.56C173.28 175.064 173.936 174.816 174.72 174.816C175.52 174.816 176.176 175.064 176.688 175.56C177.2 176.056 177.456 176.704 177.456 177.504C177.456 178.288 177.192 178.936 176.664 179.448C176.152 179.96 175.504 180.216 174.72 180.216Z" fill="white"/>
</svg>
