<svg width="32" height="32" viewBox="0 0 32 32" fill="none" xmlns="http://www.w3.org/2000/svg">
<path d="M26.4901 30.0001H5.50012C5.03691 30.0154 4.57555 29.9345 4.14523 29.7624C3.71491 29.5902 3.32499 29.3307 3.00012 29.0001C2.67208 28.6776 2.414 28.2909 2.24195 27.8642C2.0699 27.4375 1.98758 26.98 2.00012 26.5201V5.50012C1.9848 5.03691 2.06577 4.57555 2.23789 4.14523C2.41002 3.71491 2.66957 3.32499 3.00012 3.00012C3.32499 2.66957 3.71491 2.41002 4.14523 2.23789C4.57555 2.06577 5.03691 1.9848 5.50012 2.00012H26.5001C26.9633 1.9848 27.4247 2.06577 27.855 2.23789C28.2853 2.41002 28.6753 2.66957 29.0001 3.00012C29.3307 3.32499 29.5902 3.71491 29.7624 4.14523C29.9345 4.57555 30.0154 5.03691 30.0001 5.50012V26.5001C29.9949 27.4285 29.623 28.3172 28.9656 28.9727C28.3082 29.6282 27.4185 29.9975 26.4901 30.0001ZM24.7401 10.5601C24.7455 10.1012 24.6592 9.64577 24.4863 9.22059C24.3134 8.7954 24.0575 8.40899 23.7334 8.08397C23.4093 7.75896 23.0236 7.50188 22.5989 7.32779C22.1742 7.1537 21.7191 7.0661 21.2601 7.07012H10.7101C10.2519 7.06879 9.79796 7.15823 9.3745 7.33327C8.95103 7.50832 8.56643 7.7655 8.24289 8.08997C7.91934 8.41444 7.66327 8.79978 7.48944 9.22375C7.31561 9.64772 7.22748 10.1019 7.23012 10.5601V21.1001C7.22478 21.5591 7.31107 22.0145 7.48395 22.4397C7.65682 22.8648 7.91279 23.2513 8.23687 23.5763C8.56096 23.9013 8.94663 24.1584 9.37132 24.3325C9.796 24.5065 10.2512 24.5941 10.7101 24.5901H21.2601C21.7198 24.5969 22.1762 24.5112 22.6022 24.3381C23.0281 24.1649 23.4149 23.908 23.7395 23.5824C24.0641 23.2568 24.32 22.8693 24.4919 22.4429C24.6638 22.0165 24.7482 21.5598 24.7401 21.1001V10.5601ZM16.0101 11.4601C15.5397 11.4602 15.0729 11.5414 14.6301 11.7001C14.1912 11.8554 13.7743 12.0672 13.3901 12.3301H9.00012V11.4601C8.99196 11.1147 9.05381 10.7711 9.18195 10.4502C9.3101 10.1293 9.50189 9.83769 9.74576 9.59289C9.98963 9.34809 10.2805 9.15519 10.6009 9.02581C10.9214 8.89644 11.2646 8.83328 11.6101 8.84012H20.3601C20.7092 8.83344 21.056 8.89631 21.3805 9.02508C21.705 9.15385 22.0006 9.34593 22.2501 9.59012C22.499 9.83199 22.6944 10.1234 22.8236 10.4455C22.9528 10.7676 23.0129 11.1133 23.0001 11.4601V12.3301H18.6001C18.2183 12.0752 17.8091 11.8638 17.3801 11.7001C16.9385 11.5368 16.4709 11.4555 16.0001 11.4601H16.0101ZM20.3601 22.8701H11.6101C11.2627 22.8777 10.9177 22.8121 10.5972 22.6777C10.2768 22.5434 9.98821 22.3432 9.75012 22.0901C9.50803 21.8474 9.31696 21.5586 9.18816 21.2409C9.05936 20.9232 8.99542 20.5829 9.00012 20.2401V13.2401H12.4901C12.2292 13.6219 12.0175 14.0352 11.8601 14.4701C11.6899 14.917 11.6051 15.3919 11.6101 15.8701C11.6222 16.4511 11.755 17.0232 12.0001 17.5501C12.2299 18.0624 12.5443 18.5323 12.9301 18.9401C13.3289 19.3468 13.8049 19.6698 14.3301 19.8901C14.8728 20.1255 15.4587 20.2447 16.0501 20.2401C16.6244 20.2406 17.1929 20.1258 17.722 19.9025C18.251 19.6792 18.7299 19.3519 19.1301 18.9401C19.4946 18.5278 19.7886 18.0582 20.0001 17.5501C20.2328 17.0172 20.352 16.4416 20.3501 15.8601C20.3552 15.3819 20.2704 14.907 20.1001 14.4601C19.9449 14.0298 19.7437 13.6174 19.5001 13.2301H23.0001V20.2301C23.0038 20.5755 22.9365 20.9179 22.8023 21.2362C22.6681 21.5544 22.47 21.8417 22.2201 22.0801C21.9796 22.3307 21.6907 22.5298 21.371 22.6656C21.0513 22.8014 20.7074 22.871 20.3601 22.8701ZM16.0001 13.2301C16.3431 13.2243 16.6837 13.2877 17.0016 13.4166C17.3194 13.5454 17.6081 13.7371 17.8501 13.9801C18.0974 14.2247 18.2938 14.5159 18.4278 14.8369C18.5618 15.1579 18.6308 15.5023 18.6308 15.8501C18.6308 16.198 18.5618 16.5423 18.4278 16.8633C18.2938 17.1843 18.0974 17.4755 17.8501 17.7201C17.6081 17.9631 17.3194 18.1548 17.0016 18.2837C16.6837 18.4125 16.3431 18.476 16.0001 18.4701C15.6494 18.4781 15.3006 18.4159 14.9743 18.2871C14.648 18.1583 14.3508 17.9655 14.1001 17.7201C13.6079 17.2222 13.3319 16.5503 13.3319 15.8501C13.3319 15.15 13.6079 14.4781 14.1001 13.9801C14.3508 13.7347 14.648 13.5419 14.9743 13.4131C15.3006 13.2843 15.6494 13.2221 16.0001 13.2301ZM19.5001 11.4601H21.2501V9.71012H19.5101L19.5001 11.4601Z" fill="black"/>
</svg>
