<svg width="32" height="32" viewBox="0 0 32 32" fill="none" xmlns="http://www.w3.org/2000/svg">
<path d="M26.4901 30.0001H5.50012C5.03691 30.0154 4.57555 29.9345 4.14523 29.7624C3.71491 29.5902 3.32499 29.3307 3.00012 29.0001C2.67208 28.6776 2.414 28.2909 2.24195 27.8642C2.0699 27.4375 1.98758 26.98 2.00012 26.5201V5.50012C1.9848 5.03691 2.06577 4.57555 2.23789 4.14523C2.41002 3.71491 2.66957 3.32499 3.00012 3.00012C3.32499 2.66957 3.71491 2.41002 4.14523 2.23789C4.57555 2.06577 5.03691 1.9848 5.50012 2.00012H26.5001C26.9633 1.9848 27.4247 2.06577 27.855 2.23789C28.2853 2.41002 28.6753 2.66957 29.0001 3.00012C29.3307 3.32499 29.5902 3.71491 29.7624 4.14523C29.9345 4.57555 30.0154 5.03691 30.0001 5.50012V26.5001C29.9949 27.4285 29.623 28.3172 28.9656 28.9727C28.3082 29.6282 27.4185 29.9975 26.4901 30.0001ZM12.6401 23.3901C15.1659 23.4104 17.6135 22.5152 19.5301 20.8701C20.9256 19.6308 21.9851 18.0587 22.6101 16.3001C23.0008 15.2186 23.2103 14.0799 23.2301 12.9301V12.2901C23.5888 12.0196 23.9234 11.7184 24.2301 11.3901C24.5325 11.079 24.81 10.7446 25.0601 10.3901C24.4059 10.7032 23.702 10.8995 22.9801 10.9701C23.2627 10.8013 23.5245 10.5999 23.7601 10.3701C24.1171 9.94659 24.3949 9.46218 24.5801 8.94012C24.1019 9.23488 23.5876 9.46679 23.0501 9.63012C22.7731 9.72349 22.4888 9.79373 22.2001 9.84012C21.4876 9.1135 20.5176 8.69676 19.5001 8.68012C18.5213 8.67501 17.58 9.05587 16.8801 9.74012C16.5175 10.0829 16.2298 10.4971 16.0353 10.9567C15.8408 11.4163 15.7437 11.9111 15.7501 12.4101C15.753 12.6962 15.7865 12.9812 15.8501 13.2601C15.303 13.2287 14.7586 13.1619 14.2201 13.0601C12.9533 12.7531 11.7421 12.2504 10.6301 11.5701C9.69716 10.9382 8.86451 10.1696 8.16012 9.29012C7.79314 9.96053 7.63513 10.7254 7.70642 11.4864C7.7777 12.2473 8.07502 12.9695 8.56012 13.5601C8.76072 13.826 9.00809 14.053 9.29012 14.2301C8.71269 14.2099 8.14785 14.0559 7.64012 13.7801C7.63854 14.2858 7.73764 14.7867 7.93165 15.2537C8.12566 15.7207 8.41069 16.1444 8.77012 16.5001C9.1435 16.8538 9.58615 17.1262 10.0701 17.3001C10.2372 17.3745 10.4114 17.4315 10.5901 17.4701C10.4564 17.5259 10.3146 17.5597 10.1701 17.5701H9.60012C9.37914 17.5712 9.15842 17.5545 8.94012 17.5201C9.20361 18.3436 9.74428 19.0503 10.4701 19.5201C11.0503 19.8901 11.7221 20.0909 12.4101 20.1001C12.0825 20.3712 11.7311 20.6122 11.3601 20.8201C10.3033 21.3827 9.12725 21.6844 7.93012 21.7001C7.59702 21.7178 7.26322 21.7178 6.93012 21.7001C8.62755 22.809 10.6126 23.3966 12.6401 23.3901Z" fill="black"/>
</svg>
